<?xml version="1.0" encoding="UTF-8" standalone="no"?>
<!DOCTYPE svg PUBLIC "-//W3C//DTD SVG 1.1//EN"
 "http://www.w3.org/Graphics/SVG/1.1/DTD/svg11.dtd">
<!-- Generated by graphviz version 2.43.0 (0)
 -->
<!-- Title: counterexample1 Pages: 1 -->
<svg width="494pt" height="827pt"
 viewBox="0.00 0.00 494.00 827.00" xmlns="http://www.w3.org/2000/svg" xmlns:xlink="http://www.w3.org/1999/xlink">
<g id="graph0" class="graph" transform="scale(1 1) rotate(0) translate(4 823)">
<title>counterexample1</title>
<polygon fill="white" stroke="transparent" points="-4,4 -4,-823 490,-823 490,4 -4,4"/>
<!-- 0 -->
<g id="node1" class="node">
<title>0</title>
<ellipse fill="none" stroke="black" cx="135" cy="-801" rx="27" ry="18"/>
<text text-anchor="middle" x="135" y="-797.3" font-family="Times,serif" font-size="14.00">0</text>
</g>
<!-- 1 -->
<g id="node2" class="node">
<title>1</title>
<ellipse fill="none" stroke="black" cx="135" cy="-714" rx="27" ry="18"/>
<text text-anchor="middle" x="135" y="-710.3" font-family="Times,serif" font-size="14.00">1</text>
</g>
<!-- 0&#45;&gt;1 -->
<g id="edge1" class="edge">
<title>0&#45;&gt;1</title>
<path fill="none" stroke="black" d="M135,-782.8C135,-771.16 135,-755.55 135,-742.24"/>
<polygon fill="black" stroke="black" points="138.5,-742.18 135,-732.18 131.5,-742.18 138.5,-742.18"/>
<text text-anchor="middle" x="310.5" y="-753.8" font-family="Times,serif" font-size="14.00">&lt;schedule_part_B;nop;commit_invalid_secret_a&gt;</text>
</g>
<!-- 2 -->
<g id="node3" class="node">
<title>2</title>
<ellipse fill="none" stroke="black" cx="135" cy="-627" rx="27" ry="18"/>
<text text-anchor="middle" x="135" y="-623.3" font-family="Times,serif" font-size="14.00">2</text>
</g>
<!-- 1&#45;&gt;2 -->
<g id="edge2" class="edge">
<title>1&#45;&gt;2</title>
<path fill="none" stroke="black" d="M135,-695.8C135,-684.16 135,-668.55 135,-655.24"/>
<polygon fill="black" stroke="black" points="138.5,-655.18 135,-645.18 131.5,-655.18 138.5,-655.18"/>
<text text-anchor="middle" x="236" y="-666.8" font-family="Times,serif" font-size="14.00">&lt;schedule_part_A;nop;nop&gt;</text>
</g>
<!-- 3 -->
<g id="node4" class="node">
<title>3</title>
<ellipse fill="none" stroke="black" cx="135" cy="-540" rx="27" ry="18"/>
<text text-anchor="middle" x="135" y="-536.3" font-family="Times,serif" font-size="14.00">3</text>
</g>
<!-- 2&#45;&gt;3 -->
<g id="edge3" class="edge">
<title>2&#45;&gt;3</title>
<path fill="none" stroke="black" d="M135,-608.8C135,-597.16 135,-581.55 135,-568.24"/>
<polygon fill="black" stroke="black" points="138.5,-568.18 135,-558.18 131.5,-568.18 138.5,-568.18"/>
<text text-anchor="middle" x="197" y="-579.8" font-family="Times,serif" font-size="14.00">&lt;delay;nop;nop&gt;</text>
</g>
<!-- 4 -->
<g id="node5" class="node">
<title>4</title>
<ellipse fill="none" stroke="black" cx="135" cy="-453" rx="27" ry="18"/>
<text text-anchor="middle" x="135" y="-449.3" font-family="Times,serif" font-size="14.00">4</text>
</g>
<!-- 3&#45;&gt;4 -->
<g id="edge4" class="edge">
<title>3&#45;&gt;4</title>
<path fill="none" stroke="black" d="M135,-521.8C135,-510.16 135,-494.55 135,-481.24"/>
<polygon fill="black" stroke="black" points="138.5,-481.18 135,-471.18 131.5,-481.18 138.5,-481.18"/>
<text text-anchor="middle" x="236.5" y="-492.8" font-family="Times,serif" font-size="14.00">&lt;schedule_part_B;nop;nop&gt;</text>
</g>
<!-- 5 -->
<g id="node6" class="node">
<title>5</title>
<ellipse fill="none" stroke="black" cx="135" cy="-366" rx="27" ry="18"/>
<text text-anchor="middle" x="135" y="-362.3" font-family="Times,serif" font-size="14.00">5</text>
</g>
<!-- 4&#45;&gt;5 -->
<g id="edge5" class="edge">
<title>4&#45;&gt;5</title>
<path fill="none" stroke="black" d="M135,-434.8C135,-423.16 135,-407.55 135,-394.24"/>
<polygon fill="black" stroke="black" points="138.5,-394.18 135,-384.18 131.5,-394.18 138.5,-394.18"/>
<text text-anchor="middle" x="303.5" y="-405.8" font-family="Times,serif" font-size="14.00">&lt;schedule_part_A;nop;commit_valid_secret_a&gt;</text>
</g>
<!-- 6 -->
<g id="node7" class="node">
<title>6</title>
<ellipse fill="none" stroke="black" cx="135" cy="-279" rx="27" ry="18"/>
<text text-anchor="middle" x="135" y="-275.3" font-family="Times,serif" font-size="14.00">6</text>
</g>
<!-- 5&#45;&gt;6 -->
<g id="edge6" class="edge">
<title>5&#45;&gt;6</title>
<path fill="none" stroke="black" d="M135,-347.8C135,-336.16 135,-320.55 135,-307.24"/>
<polygon fill="black" stroke="black" points="138.5,-307.18 135,-297.18 131.5,-307.18 138.5,-307.18"/>
<text text-anchor="middle" x="236" y="-318.8" font-family="Times,serif" font-size="14.00">&lt;schedule_part_A;nop;nop&gt;</text>
</g>
<!-- 7 -->
<g id="node8" class="node">
<title>7</title>
<ellipse fill="none" stroke="black" cx="135" cy="-192" rx="27" ry="18"/>
<text text-anchor="middle" x="135" y="-188.3" font-family="Times,serif" font-size="14.00">7</text>
</g>
<!-- 6&#45;&gt;7 -->
<g id="edge7" class="edge">
<title>6&#45;&gt;7</title>
<path fill="none" stroke="black" d="M135,-260.8C135,-249.16 135,-233.55 135,-220.24"/>
<polygon fill="black" stroke="black" points="138.5,-220.18 135,-210.18 131.5,-220.18 138.5,-220.18"/>
<text text-anchor="middle" x="197" y="-231.8" font-family="Times,serif" font-size="14.00">&lt;delay;nop;nop&gt;</text>
</g>
<!-- 8 -->
<g id="node9" class="node">
<title>8</title>
<ellipse fill="none" stroke="black" cx="27" cy="-105" rx="27" ry="18"/>
<text text-anchor="middle" x="27" y="-101.3" font-family="Times,serif" font-size="14.00">8</text>
</g>
<!-- 7&#45;&gt;8 -->
<g id="edge8" class="edge">
<title>7&#45;&gt;8</title>
<path fill="none" stroke="black" d="M107.69,-190.61C82.16,-188.62 45.31,-181.19 27,-156 22.24,-149.46 20.95,-141.06 21.23,-133.01"/>
<polygon fill="black" stroke="black" points="24.73,-133.15 22.34,-122.83 17.77,-132.39 24.73,-133.15"/>
<text text-anchor="middle" x="128.5" y="-144.8" font-family="Times,serif" font-size="14.00">&lt;schedule_part_B;nop;nop&gt;</text>
</g>
<!-- 9 -->
<g id="node10" class="node">
<title>9</title>
<ellipse fill="none" stroke="black" cx="135" cy="-18" rx="27" ry="18"/>
<text text-anchor="middle" x="135" y="-14.3" font-family="Times,serif" font-size="14.00">9</text>
</g>
<!-- 8&#45;&gt;9 -->
<g id="edge9" class="edge">
<title>8&#45;&gt;9</title>
<path fill="none" stroke="black" d="M22.75,-87.13C21.13,-76.61 21.08,-63.35 28,-54 44.01,-32.38 73.73,-23.89 97.79,-20.66"/>
<polygon fill="black" stroke="black" points="98.48,-24.11 108.04,-19.55 97.72,-17.15 98.48,-24.11"/>
<text text-anchor="middle" x="129" y="-57.8" font-family="Times,serif" font-size="14.00">&lt;schedule_part_A;nop;nop&gt;</text>
</g>
<!-- 9&#45;&gt;7 -->
<g id="edge10" class="edge">
<title>9&#45;&gt;7</title>
<path fill="none" stroke="black" d="M161.73,-20.79C184.09,-23.86 214.72,-32.08 230,-54 255.93,-91.19 255.93,-118.81 230,-156 216.93,-174.75 192.63,-183.48 171.87,-187.53"/>
<polygon fill="black" stroke="black" points="171.02,-184.13 161.73,-189.21 172.17,-191.03 171.02,-184.13"/>
<text text-anchor="middle" x="311" y="-101.3" font-family="Times,serif" font-size="14.00">&lt;delay;nop;nop&gt;</text>
</g>
</g>
</svg>
