<?xml version="1.0" encoding="UTF-8" standalone="no"?>
<!DOCTYPE svg PUBLIC "-//W3C//DTD SVG 1.1//EN"
 "http://www.w3.org/Graphics/SVG/1.1/DTD/svg11.dtd">
<!-- Generated by graphviz version 2.43.0 (0)
 -->
<!-- Title: statespace Pages: 1 -->
<svg width="3645pt" height="566pt"
 viewBox="0.00 0.00 3644.78 566.00" xmlns="http://www.w3.org/2000/svg" xmlns:xlink="http://www.w3.org/1999/xlink">
<g id="graph0" class="graph" transform="scale(1 1) rotate(0) translate(4 562)">
<title>statespace</title>
<polygon fill="white" stroke="transparent" points="-4,4 -4,-562 3640.78,-562 3640.78,4 -4,4"/>
<!-- 0 -->
<g id="node1" class="node">
<title>0</title>
<ellipse fill="none" stroke="black" cx="1143.78" cy="-540" rx="27" ry="18"/>
<text text-anchor="middle" x="1143.78" y="-536.3" font-family="Times,serif" font-size="14.00">0</text>
</g>
<!-- 1 -->
<g id="node2" class="node">
<title>1</title>
<ellipse fill="none" stroke="black" cx="772.78" cy="-279" rx="27" ry="18"/>
<text text-anchor="middle" x="772.78" y="-275.3" font-family="Times,serif" font-size="14.00">1</text>
</g>
<!-- 0&#45;&gt;1 -->
<g id="edge1" class="edge">
<title>0&#45;&gt;1</title>
<path fill="none" stroke="black" d="M1116.67,-538.68C992.73,-537.1 479.33,-529.13 320.78,-504 178.6,-481.46 95.84,-531.65 8.78,-417 -82.42,-296.89 569.94,-282.08 735.31,-280.26"/>
<polygon fill="black" stroke="black" points="735.52,-283.75 745.49,-280.15 735.45,-276.75 735.52,-283.75"/>
<text text-anchor="middle" x="160.78" y="-405.8" font-family="Times,serif" font-size="14.00">&lt;schedule_part_B;nop;initialize_contract&gt;</text>
</g>
<!-- 0&#45;&gt;1 -->
<g id="edge2" class="edge">
<title>0&#45;&gt;1</title>
<path fill="none" stroke="black" d="M1116.8,-539.26C991.44,-539.82 467.94,-534.99 370.78,-417 270.56,-295.29 618.22,-281.32 735.48,-280.02"/>
<polygon fill="black" stroke="black" points="735.8,-283.52 745.77,-279.93 735.74,-276.52 735.8,-283.52"/>
<text text-anchor="middle" x="573.78" y="-405.8" font-family="Times,serif" font-size="14.00">&lt;schedule_part_B;initialize_contract;initialize_contract&gt;</text>
</g>
<!-- 2 -->
<g id="node3" class="node">
<title>2</title>
<ellipse fill="none" stroke="black" cx="1958.78" cy="-192" rx="27" ry="18"/>
<text text-anchor="middle" x="1958.78" y="-188.3" font-family="Times,serif" font-size="14.00">2</text>
</g>
<!-- 0&#45;&gt;2 -->
<g id="edge3" class="edge">
<title>0&#45;&gt;2</title>
<path fill="none" stroke="black" d="M1170.78,-538.82C1364.68,-537.49 2547.49,-528.48 2905.78,-504 3001.1,-497.49 3332.78,-549.54 3332.78,-454 3332.78,-454 3332.78,-454 3332.78,-278 3332.78,-209.04 2215.55,-195.33 1995.98,-193.3"/>
<polygon fill="black" stroke="black" points="1995.95,-189.8 1985.92,-193.21 1995.89,-196.8 1995.95,-189.8"/>
<text text-anchor="middle" x="3484.78" y="-362.3" font-family="Times,serif" font-size="14.00">&lt;schedule_part_A;initialize_contract;nop&gt;</text>
</g>
<!-- 0&#45;&gt;2 -->
<g id="edge4" class="edge">
<title>0&#45;&gt;2</title>
<path fill="none" stroke="black" d="M1170.89,-539.15C1392.04,-540.21 2891.78,-544.06 2891.78,-454 2891.78,-454 2891.78,-454 2891.78,-278 2891.78,-232.2 2169.25,-201.18 1995.86,-194.4"/>
<polygon fill="black" stroke="black" points="1995.83,-190.9 1985.7,-194.01 1995.56,-197.89 1995.83,-190.9"/>
<text text-anchor="middle" x="3094.28" y="-362.3" font-family="Times,serif" font-size="14.00">&lt;schedule_part_A;initialize_contract;initialize_contract&gt;</text>
</g>
<!-- 3 -->
<g id="node4" class="node">
<title>3</title>
<ellipse fill="none" stroke="black" cx="1385.78" cy="-453" rx="27" ry="18"/>
<text text-anchor="middle" x="1385.78" y="-449.3" font-family="Times,serif" font-size="14.00">3</text>
</g>
<!-- 0&#45;&gt;3 -->
<g id="edge5" class="edge">
<title>0&#45;&gt;3</title>
<path fill="none" stroke="black" d="M1144.33,-521.53C1145.66,-510.49 1149.3,-496.87 1158.78,-489 1187.85,-464.88 1290.74,-478.34 1327.78,-471 1335.89,-469.39 1344.5,-467.17 1352.53,-464.85"/>
<polygon fill="black" stroke="black" points="1353.74,-468.14 1362.32,-461.92 1351.73,-461.44 1353.74,-468.14"/>
<text text-anchor="middle" x="1259.78" y="-492.8" font-family="Times,serif" font-size="14.00">&lt;schedule_part_A;nop;nop&gt;</text>
</g>
<!-- 0&#45;&gt;3 -->
<g id="edge6" class="edge">
<title>0&#45;&gt;3</title>
<path fill="none" stroke="black" d="M1170.95,-537.67C1222.28,-534.67 1331.03,-525.86 1360.78,-504 1368.63,-498.24 1374.16,-489.32 1377.99,-480.6"/>
<polygon fill="black" stroke="black" points="1381.35,-481.61 1381.62,-471.02 1374.81,-479.13 1381.35,-481.61"/>
<text text-anchor="middle" x="1524.78" y="-492.8" font-family="Times,serif" font-size="14.00">&lt;schedule_part_A;nop;initialize_contract&gt;</text>
</g>
<!-- 4 -->
<g id="node5" class="node">
<title>4</title>
<ellipse fill="none" stroke="black" cx="1104.78" cy="-366" rx="27" ry="18"/>
<text text-anchor="middle" x="1104.78" y="-362.3" font-family="Times,serif" font-size="14.00">4</text>
</g>
<!-- 0&#45;&gt;4 -->
<g id="edge7" class="edge">
<title>0&#45;&gt;4</title>
<path fill="none" stroke="black" d="M1116.69,-537.99C1041.97,-534.57 835.75,-520.73 794.78,-471 775.28,-447.33 773.83,-424.4 794.78,-402 815.25,-380.12 1034.62,-390.83 1063.78,-384 1067.19,-383.2 1070.67,-382.15 1074.1,-380.97"/>
<polygon fill="black" stroke="black" points="1075.43,-384.21 1083.52,-377.36 1072.93,-377.67 1075.43,-384.21"/>
<text text-anchor="middle" x="946.78" y="-449.3" font-family="Times,serif" font-size="14.00">&lt;schedule_part_B;initialize_contract;nop&gt;</text>
</g>
<!-- 0&#45;&gt;4 -->
<g id="edge8" class="edge">
<title>0&#45;&gt;4</title>
<path fill="none" stroke="black" d="M1141.83,-521.95C1138.09,-498.07 1127.55,-455.31 1098.78,-435 1050.21,-400.7 872.39,-460.44 831.78,-417 827.23,-412.13 827.25,-406.89 831.78,-402 849.34,-383.02 1038.64,-390.03 1063.78,-384 1067.18,-383.19 1070.67,-382.12 1074.1,-380.93"/>
<polygon fill="black" stroke="black" points="1075.43,-384.17 1083.51,-377.31 1072.92,-377.64 1075.43,-384.17"/>
<text text-anchor="middle" x="1227.28" y="-449.3" font-family="Times,serif" font-size="14.00">&lt;schedule_part_B;nop;nop&gt;</text>
</g>
<!-- 1&#45;&gt;1 -->
<g id="edge11" class="edge">
<title>1&#45;&gt;1</title>
<path fill="none" stroke="black" d="M799.58,-282.93C809.56,-283.06 817.78,-281.75 817.78,-279 817.78,-277.28 814.57,-276.13 809.73,-275.53"/>
<polygon fill="black" stroke="black" points="809.73,-272.03 799.58,-275.07 809.41,-279.02 809.73,-272.03"/>
<text text-anchor="middle" x="987.78" y="-275.3" font-family="Times,serif" font-size="14.00">&lt;schedule_part_B;exec_node_0_withdraw;nop&gt;</text>
</g>
<!-- 1&#45;&gt;1 -->
<g id="edge12" class="edge">
<title>1&#45;&gt;1</title>
<path fill="none" stroke="black" d="M799.42,-282.76C887.74,-289.3 1157.78,-288.04 1157.78,-279 1157.78,-270.28 906.9,-268.8 809.69,-274.56"/>
<polygon fill="black" stroke="black" points="809.17,-271.09 799.42,-275.24 809.63,-278.07 809.17,-271.09"/>
<text text-anchor="middle" x="1259.28" y="-275.3" font-family="Times,serif" font-size="14.00">&lt;schedule_part_B;nop;nop&gt;</text>
</g>
<!-- 1&#45;&gt;2 -->
<g id="edge9" class="edge">
<title>1&#45;&gt;2</title>
<path fill="none" stroke="black" d="M774.16,-260.69C776.05,-249.42 780.47,-235.47 790.78,-228 818.87,-207.65 1380.12,-211.04 1414.78,-210 1605.6,-204.27 1834.06,-196.99 1921.89,-194.18"/>
<polygon fill="black" stroke="black" points="1922.01,-197.68 1931.9,-193.86 1921.79,-190.68 1922.01,-197.68"/>
<text text-anchor="middle" x="960.78" y="-231.8" font-family="Times,serif" font-size="14.00">&lt;schedule_part_A;nop;exec_node_0_withdraw&gt;</text>
</g>
<!-- 1&#45;&gt;2 -->
<g id="edge10" class="edge">
<title>1&#45;&gt;2</title>
<path fill="none" stroke="black" d="M799.88,-277.02C872.42,-274.13 1069.65,-264.47 1130.78,-243 1142.3,-238.96 1142.16,-231.73 1153.78,-228 1190.69,-216.15 1767.3,-198.58 1921.25,-194.08"/>
<polygon fill="black" stroke="black" points="1921.69,-197.57 1931.59,-193.78 1921.49,-190.57 1921.69,-197.57"/>
<text text-anchor="middle" x="1254.78" y="-231.8" font-family="Times,serif" font-size="14.00">&lt;schedule_part_A;nop;nop&gt;</text>
</g>
<!-- 5 -->
<g id="node6" class="node">
<title>5</title>
<ellipse fill="none" stroke="black" cx="1085.78" cy="-18" rx="27" ry="18"/>
<text text-anchor="middle" x="1085.78" y="-14.3" font-family="Times,serif" font-size="14.00">5</text>
</g>
<!-- 1&#45;&gt;5 -->
<g id="edge13" class="edge">
<title>1&#45;&gt;5</title>
<path fill="none" stroke="black" d="M745.4,-277.68C598.42,-275.45 -86.76,-258.75 11.78,-141 79.94,-59.56 867.3,-26.76 1048.68,-20.25"/>
<polygon fill="black" stroke="black" points="1048.92,-23.75 1058.79,-19.89 1048.67,-16.75 1048.92,-23.75"/>
<text text-anchor="middle" x="250.78" y="-144.8" font-family="Times,serif" font-size="14.00">&lt;schedule_part_B;exec_node_0_withdraw;exec_node_0_withdraw&gt;</text>
</g>
<!-- 1&#45;&gt;5 -->
<g id="edge14" class="edge">
<title>1&#45;&gt;5</title>
<path fill="none" stroke="black" d="M745.85,-276.06C696.63,-272.09 594.48,-261.8 564.78,-243 521.09,-215.34 476.22,-181.17 508.78,-141 577.56,-56.16 932.42,-28 1048.78,-20.97"/>
<polygon fill="black" stroke="black" points="1049.19,-24.45 1058.97,-20.37 1048.78,-17.46 1049.19,-24.45"/>
<text text-anchor="middle" x="678.78" y="-144.8" font-family="Times,serif" font-size="14.00">&lt;schedule_part_B;nop;exec_node_0_withdraw&gt;</text>
</g>
<!-- 6 -->
<g id="node7" class="node">
<title>6</title>
<ellipse fill="none" stroke="black" cx="1086.78" cy="-105" rx="27" ry="18"/>
<text text-anchor="middle" x="1086.78" y="-101.3" font-family="Times,serif" font-size="14.00">6</text>
</g>
<!-- 1&#45;&gt;6 -->
<g id="edge15" class="edge">
<title>1&#45;&gt;6</title>
<path fill="none" stroke="black" d="M768.26,-260.92C766.5,-250.05 766.55,-236.47 774.78,-228 815.77,-185.84 990.36,-243.36 1038.78,-210 1064.32,-192.41 1076.55,-157.66 1082.22,-133.19"/>
<polygon fill="black" stroke="black" points="1085.71,-133.59 1084.32,-123.09 1078.86,-132.16 1085.71,-133.59"/>
<text text-anchor="middle" x="1236.78" y="-188.3" font-family="Times,serif" font-size="14.00">&lt;schedule_part_A;exec_node_0_withdraw;nop&gt;</text>
</g>
<!-- 1&#45;&gt;6 -->
<g id="edge16" class="edge">
<title>1&#45;&gt;6</title>
<path fill="none" stroke="black" d="M746.46,-275C677.13,-266.14 498.76,-236.74 557.78,-174 580.29,-150.08 820.25,-160.44 852.78,-156 924.38,-146.22 1006.72,-126.65 1052.14,-115.1"/>
<polygon fill="black" stroke="black" points="1053.25,-118.43 1062.06,-112.56 1051.51,-111.65 1053.25,-118.43"/>
<text text-anchor="middle" x="796.28" y="-188.3" font-family="Times,serif" font-size="14.00">&lt;schedule_part_A;exec_node_0_withdraw;exec_node_0_withdraw&gt;</text>
</g>
<!-- 2&#45;&gt;1 -->
<g id="edge23" class="edge">
<title>2&#45;&gt;1</title>
<path fill="none" stroke="black" d="M1931.49,-192.81C1831.17,-192.38 1483.31,-193.47 1378.78,-228 1367.19,-231.83 1367.37,-239.17 1355.78,-243 1253.88,-276.65 921.91,-278.58 810,-278.24"/>
<polygon fill="black" stroke="black" points="809.89,-274.74 799.88,-278.2 809.86,-281.74 809.89,-274.74"/>
<text text-anchor="middle" x="1548.78" y="-231.8" font-family="Times,serif" font-size="14.00">&lt;schedule_part_B;exec_node_0_withdraw;nop&gt;</text>
</g>
<!-- 2&#45;&gt;1 -->
<g id="edge24" class="edge">
<title>2&#45;&gt;1</title>
<path fill="none" stroke="black" d="M1931.8,-193.77C1889.82,-195.75 1806.92,-202.82 1741.78,-228 1730.4,-232.4 1730.41,-239.31 1718.78,-243 1631.22,-270.8 974.98,-276.74 810.22,-277.8"/>
<polygon fill="black" stroke="black" points="810.07,-274.3 800.09,-277.86 810.11,-281.3 810.07,-274.3"/>
<text text-anchor="middle" x="1843.28" y="-231.8" font-family="Times,serif" font-size="14.00">&lt;schedule_part_B;nop;nop&gt;</text>
</g>
<!-- 2&#45;&gt;2 -->
<g id="edge21" class="edge">
<title>2&#45;&gt;2</title>
<path fill="none" stroke="black" d="M1985.58,-195.93C1995.56,-196.06 2003.78,-194.75 2003.78,-192 2003.78,-190.28 2000.57,-189.13 1995.73,-188.53"/>
<polygon fill="black" stroke="black" points="1995.73,-185.03 1985.58,-188.07 1995.41,-192.02 1995.73,-185.03"/>
<text text-anchor="middle" x="2173.78" y="-188.3" font-family="Times,serif" font-size="14.00">&lt;schedule_part_A;nop;exec_node_0_withdraw&gt;</text>
</g>
<!-- 2&#45;&gt;2 -->
<g id="edge22" class="edge">
<title>2&#45;&gt;2</title>
<path fill="none" stroke="black" d="M1985.42,-195.76C2073.74,-202.3 2343.78,-201.04 2343.78,-192 2343.78,-183.28 2092.9,-181.8 1995.69,-187.56"/>
<polygon fill="black" stroke="black" points="1995.17,-184.09 1985.42,-188.24 1995.63,-191.07 1995.17,-184.09"/>
<text text-anchor="middle" x="2444.78" y="-188.3" font-family="Times,serif" font-size="14.00">&lt;schedule_part_A;nop;nop&gt;</text>
</g>
<!-- 2&#45;&gt;5 -->
<g id="edge17" class="edge">
<title>2&#45;&gt;5</title>
<path fill="none" stroke="black" d="M1958.48,-173.71C1957.33,-162.74 1953.95,-149.14 1944.78,-141 1757.12,25.68 1635.49,-87.83 1386.78,-54 1291.78,-41.07 1179.49,-28.81 1122.67,-22.82"/>
<polygon fill="black" stroke="black" points="1122.71,-19.31 1112.4,-21.74 1121.98,-26.27 1122.71,-19.31"/>
<text text-anchor="middle" x="2158.78" y="-101.3" font-family="Times,serif" font-size="14.00">&lt;schedule_part_B;exec_node_0_withdraw;exec_node_0_withdraw&gt;</text>
</g>
<!-- 2&#45;&gt;5 -->
<g id="edge18" class="edge">
<title>2&#45;&gt;5</title>
<path fill="none" stroke="black" d="M1985.96,-191.21C2073.79,-191.26 2347.5,-186.25 2401.78,-123 2412.2,-110.86 2412.8,-98.6 2401.78,-87 2356.54,-39.36 1332.5,-22.46 1123.01,-19.5"/>
<polygon fill="black" stroke="black" points="1122.88,-15.99 1112.84,-19.35 1122.79,-22.99 1122.88,-15.99"/>
<text text-anchor="middle" x="2579.78" y="-101.3" font-family="Times,serif" font-size="14.00">&lt;schedule_part_B;nop;exec_node_0_withdraw&gt;</text>
</g>
<!-- 2&#45;&gt;6 -->
<g id="edge19" class="edge">
<title>2&#45;&gt;6</title>
<path fill="none" stroke="black" d="M1931.63,-190.09C1787,-185.23 1113.33,-162.27 1104.78,-156 1097.41,-150.59 1093.04,-141.86 1090.47,-133.2"/>
<polygon fill="black" stroke="black" points="1093.84,-132.24 1088.19,-123.27 1087.01,-133.8 1093.84,-132.24"/>
<text text-anchor="middle" x="1343.28" y="-144.8" font-family="Times,serif" font-size="14.00">&lt;schedule_part_A;exec_node_0_withdraw;exec_node_0_withdraw&gt;</text>
</g>
<!-- 2&#45;&gt;6 -->
<g id="edge20" class="edge">
<title>2&#45;&gt;6</title>
<path fill="none" stroke="black" d="M1931.73,-189.99C1859.79,-187.03 1665.15,-177.24 1604.78,-156 1593.27,-151.95 1593.35,-144.89 1581.78,-141 1496.98,-112.5 1223.99,-107.21 1123.96,-106.22"/>
<polygon fill="black" stroke="black" points="1123.77,-102.72 1113.74,-106.13 1123.7,-109.72 1123.77,-102.72"/>
<text text-anchor="middle" x="1774.78" y="-144.8" font-family="Times,serif" font-size="14.00">&lt;schedule_part_A;exec_node_0_withdraw;nop&gt;</text>
</g>
<!-- 3&#45;&gt;1 -->
<g id="edge31" class="edge">
<title>3&#45;&gt;1</title>
<path fill="none" stroke="black" d="M1362.91,-443.15C1353.69,-439.98 1342.87,-436.76 1332.78,-435 1223.04,-415.81 939.81,-444.22 831.78,-417 799.59,-408.89 782.32,-412.18 764.78,-384 750.27,-360.67 755.77,-328.45 762.66,-306.08"/>
<polygon fill="black" stroke="black" points="765.99,-307.16 765.86,-296.57 759.36,-304.93 765.99,-307.16"/>
<text text-anchor="middle" x="916.78" y="-362.3" font-family="Times,serif" font-size="14.00">&lt;schedule_part_B;nop;initialize_contract&gt;</text>
</g>
<!-- 3&#45;&gt;1 -->
<g id="edge32" class="edge">
<title>3&#45;&gt;1</title>
<path fill="none" stroke="black" d="M1412.98,-452.25C1514.01,-452.9 1863.59,-452.54 1896.78,-417 1901.33,-412.13 1901.24,-406.95 1896.78,-402 1871.06,-373.45 1759.99,-399.4 1724.78,-384 1702.57,-374.28 1705.56,-358.67 1683.78,-348 1614.28,-313.94 1589.64,-324.19 1512.78,-315 1244.59,-282.95 918.43,-279.93 809.89,-279.88"/>
<polygon fill="black" stroke="black" points="809.78,-276.38 799.78,-279.88 809.78,-283.38 809.78,-276.38"/>
<text text-anchor="middle" x="1927.78" y="-362.3" font-family="Times,serif" font-size="14.00">&lt;schedule_part_B;initialize_contract;initialize_contract&gt;</text>
</g>
<!-- 3&#45;&gt;2 -->
<g id="edge25" class="edge">
<title>3&#45;&gt;2</title>
<path fill="none" stroke="black" d="M1412.71,-451.47C1540,-448.69 2077.37,-434.08 2130.78,-384 2153.68,-362.54 2122.11,-335.6 2145.78,-315 2185.79,-280.18 2347.72,-335.89 2383.78,-297 2394.66,-285.27 2394.16,-273.17 2383.78,-261 2333.95,-202.56 2090.08,-194.13 1995.95,-193.07"/>
<polygon fill="black" stroke="black" points="1995.79,-189.57 1985.75,-192.98 1995.72,-196.57 1995.79,-189.57"/>
<text text-anchor="middle" x="2348.28" y="-318.8" font-family="Times,serif" font-size="14.00">&lt;schedule_part_A;initialize_contract;initialize_contract&gt;</text>
</g>
<!-- 3&#45;&gt;2 -->
<g id="edge26" class="edge">
<title>3&#45;&gt;2</title>
<path fill="none" stroke="black" d="M1412.85,-451.36C1580.73,-447.11 2475.01,-420.31 2550.78,-330 2570.06,-307.02 2563.51,-281.95 2354.78,-228 2226.39,-194.81 2067.66,-191.73 1996.45,-192.25"/>
<polygon fill="black" stroke="black" points="1996.15,-188.75 1986.19,-192.36 1996.23,-195.75 1996.15,-188.75"/>
<text text-anchor="middle" x="2709.78" y="-318.8" font-family="Times,serif" font-size="14.00">&lt;schedule_part_A;initialize_contract;nop&gt;</text>
</g>
<!-- 3&#45;&gt;3 -->
<g id="edge27" class="edge">
<title>3&#45;&gt;3</title>
<path fill="none" stroke="black" d="M1412.58,-456.93C1422.56,-457.06 1430.78,-455.75 1430.78,-453 1430.78,-451.28 1427.57,-450.13 1422.73,-449.53"/>
<polygon fill="black" stroke="black" points="1422.73,-446.03 1412.58,-449.07 1422.41,-453.02 1422.73,-446.03"/>
<text text-anchor="middle" x="1531.78" y="-449.3" font-family="Times,serif" font-size="14.00">&lt;schedule_part_A;nop;nop&gt;</text>
</g>
<!-- 3&#45;&gt;3 -->
<g id="edge28" class="edge">
<title>3&#45;&gt;3</title>
<path fill="none" stroke="black" d="M1412.13,-457.44C1477.06,-463.2 1632.78,-461.72 1632.78,-453 1632.78,-444.71 1491.9,-442.97 1422.26,-447.77"/>
<polygon fill="black" stroke="black" points="1421.83,-444.29 1412.13,-448.56 1422.37,-451.27 1421.83,-444.29"/>
<text text-anchor="middle" x="1784.78" y="-449.3" font-family="Times,serif" font-size="14.00">&lt;schedule_part_A;nop;initialize_contract&gt;</text>
</g>
<!-- 3&#45;&gt;4 -->
<g id="edge29" class="edge">
<title>3&#45;&gt;4</title>
<path fill="none" stroke="black" d="M1362.38,-443.7C1351.93,-440.37 1339.38,-436.88 1327.78,-435 1301,-430.65 858.61,-436.53 839.78,-417 835.16,-412.2 835.26,-406.9 839.78,-402 856.72,-383.65 1039.51,-389.85 1063.78,-384 1067.18,-383.18 1070.66,-382.12 1074.09,-380.92"/>
<polygon fill="black" stroke="black" points="1075.43,-384.16 1083.5,-377.3 1072.91,-377.63 1075.43,-384.16"/>
<text text-anchor="middle" x="991.78" y="-405.8" font-family="Times,serif" font-size="14.00">&lt;schedule_part_B;initialize_contract;nop&gt;</text>
</g>
<!-- 3&#45;&gt;4 -->
<g id="edge30" class="edge">
<title>3&#45;&gt;4</title>
<path fill="none" stroke="black" d="M1362.03,-444.02C1351.62,-440.79 1339.2,-437.29 1327.78,-435 1257.19,-420.82 1233.24,-444.71 1166.78,-417 1158.25,-413.44 1141.71,-399.95 1127.86,-387.88"/>
<polygon fill="black" stroke="black" points="1129.9,-385.02 1120.09,-381.02 1125.27,-390.27 1129.9,-385.02"/>
<text text-anchor="middle" x="1268.28" y="-405.8" font-family="Times,serif" font-size="14.00">&lt;schedule_part_B;nop;nop&gt;</text>
</g>
<!-- 4&#45;&gt;1 -->
<g id="edge33" class="edge">
<title>4&#45;&gt;1</title>
<path fill="none" stroke="black" d="M1083.52,-354.64C1077.29,-352.03 1070.39,-349.54 1063.78,-348 1034.07,-341.06 813.99,-348.57 789.78,-330 782.57,-324.47 778.39,-315.71 775.98,-307.07"/>
<polygon fill="black" stroke="black" points="779.38,-306.23 773.89,-297.17 772.53,-307.68 779.38,-306.23"/>
<text text-anchor="middle" x="941.78" y="-318.8" font-family="Times,serif" font-size="14.00">&lt;schedule_part_B;nop;initialize_contract&gt;</text>
</g>
<!-- 4&#45;&gt;1 -->
<g id="edge34" class="edge">
<title>4&#45;&gt;1</title>
<path fill="none" stroke="black" d="M1105.73,-347.66C1105.32,-336.68 1102.78,-323.07 1093.78,-315 1072.97,-296.32 889.58,-285.5 809.7,-281.63"/>
<polygon fill="black" stroke="black" points="809.74,-278.13 799.59,-281.15 809.41,-285.12 809.74,-278.13"/>
<text text-anchor="middle" x="1305.78" y="-318.8" font-family="Times,serif" font-size="14.00">&lt;schedule_part_B;initialize_contract;initialize_contract&gt;</text>
</g>
<!-- 4&#45;&gt;2 -->
<g id="edge37" class="edge">
<title>4&#45;&gt;2</title>
<path fill="none" stroke="black" d="M1131.74,-363.94C1210.71,-360.65 1440.48,-349.61 1512.78,-330 1581.66,-311.32 1588.69,-278.89 1657.78,-261 1688.71,-252.99 1919.94,-263.1 1944.78,-243 1951.66,-237.44 1955.32,-228.79 1957.22,-220.25"/>
<polygon fill="black" stroke="black" points="1960.72,-220.5 1958.77,-210.09 1953.8,-219.45 1960.72,-220.5"/>
<text text-anchor="middle" x="1809.78" y="-275.3" font-family="Times,serif" font-size="14.00">&lt;schedule_part_A;initialize_contract;nop&gt;</text>
</g>
<!-- 4&#45;&gt;2 -->
<g id="edge38" class="edge">
<title>4&#45;&gt;2</title>
<path fill="none" stroke="black" d="M1132.12,-364.96C1272.02,-364.47 1903.61,-358.82 1961.78,-297 1980.98,-276.6 1975.82,-242.76 1968.77,-219.25"/>
<polygon fill="black" stroke="black" points="1972.03,-217.97 1965.59,-209.56 1965.38,-220.15 1972.03,-217.97"/>
<text text-anchor="middle" x="2177.28" y="-275.3" font-family="Times,serif" font-size="14.00">&lt;schedule_part_A;initialize_contract;initialize_contract&gt;</text>
</g>
<!-- 4&#45;&gt;3 -->
<g id="edge39" class="edge">
<title>4&#45;&gt;3</title>
<path fill="none" stroke="black" d="M1132.17,-367.02C1192.46,-367.62 1334.18,-372.24 1369.78,-402 1376.54,-407.65 1380.48,-416.17 1382.76,-424.58"/>
<polygon fill="black" stroke="black" points="1379.37,-425.48 1384.8,-434.58 1386.23,-424.08 1379.37,-425.48"/>
<text text-anchor="middle" x="1480.78" y="-405.8" font-family="Times,serif" font-size="14.00">&lt;schedule_part_A;nop;nop&gt;</text>
</g>
<!-- 4&#45;&gt;3 -->
<g id="edge40" class="edge">
<title>4&#45;&gt;3</title>
<path fill="none" stroke="black" d="M1132.04,-366.87C1229.25,-366.71 1554.78,-368.66 1585.78,-402 1590.32,-406.88 1590.07,-411.9 1585.78,-417 1565.42,-441.24 1475.17,-448.69 1423.13,-450.99"/>
<polygon fill="black" stroke="black" points="1422.8,-447.5 1412.95,-451.39 1423.08,-454.49 1422.8,-447.5"/>
<text text-anchor="middle" x="1740.78" y="-405.8" font-family="Times,serif" font-size="14.00">&lt;schedule_part_A;nop;initialize_contract&gt;</text>
</g>
<!-- 4&#45;&gt;4 -->
<g id="edge35" class="edge">
<title>4&#45;&gt;4</title>
<path fill="none" stroke="black" d="M1131.58,-369.93C1141.56,-370.06 1149.78,-368.75 1149.78,-366 1149.78,-364.28 1146.57,-363.13 1141.73,-362.53"/>
<polygon fill="black" stroke="black" points="1141.73,-359.03 1131.58,-362.07 1141.41,-366.02 1141.73,-359.03"/>
<text text-anchor="middle" x="1251.28" y="-362.3" font-family="Times,serif" font-size="14.00">&lt;schedule_part_B;nop;nop&gt;</text>
</g>
<!-- 4&#45;&gt;4 -->
<g id="edge36" class="edge">
<title>4&#45;&gt;4</title>
<path fill="none" stroke="black" d="M1131.21,-370.44C1196.37,-376.2 1352.78,-374.72 1352.78,-366 1352.78,-357.71 1211.27,-355.97 1141.38,-360.77"/>
<polygon fill="black" stroke="black" points="1140.91,-357.29 1131.21,-361.56 1141.45,-364.27 1140.91,-357.29"/>
<text text-anchor="middle" x="1504.78" y="-362.3" font-family="Times,serif" font-size="14.00">&lt;schedule_part_B;initialize_contract;nop&gt;</text>
</g>
<!-- 5&#45;&gt;5 -->
<g id="edge42" class="edge">
<title>5&#45;&gt;5</title>
<path fill="none" stroke="black" d="M1110.32,-25.75C1121.29,-26.49 1130.78,-23.91 1130.78,-18 1130.78,-14.03 1126.5,-11.56 1120.36,-10.59"/>
<polygon fill="black" stroke="black" points="1120.43,-7.09 1110.32,-10.25 1120.19,-14.09 1120.43,-7.09"/>
<text text-anchor="middle" x="1232.28" y="-14.3" font-family="Times,serif" font-size="14.00">&lt;schedule_part_B;nop;nop&gt;</text>
</g>
<!-- 5&#45;&gt;6 -->
<g id="edge41" class="edge">
<title>5&#45;&gt;6</title>
<path fill="none" stroke="black" d="M1058.91,-21.21C1019.17,-25.55 951.75,-37.67 974.78,-69 991.75,-92.08 1023.87,-100.37 1049.38,-103.15"/>
<polygon fill="black" stroke="black" points="1049.23,-106.64 1059.49,-104 1049.82,-99.67 1049.23,-106.64"/>
<text text-anchor="middle" x="1075.78" y="-57.8" font-family="Times,serif" font-size="14.00">&lt;schedule_part_A;nop;nop&gt;</text>
</g>
<!-- 6&#45;&gt;5 -->
<g id="edge44" class="edge">
<title>6&#45;&gt;5</title>
<path fill="none" stroke="black" d="M1112.87,-100C1145.38,-93.84 1194.59,-79.93 1176.78,-54 1164.62,-36.3 1142.16,-27.54 1122.6,-23.22"/>
<polygon fill="black" stroke="black" points="1123.18,-19.77 1112.7,-21.34 1121.87,-26.64 1123.18,-19.77"/>
<text text-anchor="middle" x="1281.28" y="-57.8" font-family="Times,serif" font-size="14.00">&lt;schedule_part_B;nop;nop&gt;</text>
</g>
<!-- 6&#45;&gt;6 -->
<g id="edge43" class="edge">
<title>6&#45;&gt;6</title>
<path fill="none" stroke="black" d="M1111.32,-112.75C1122.29,-113.49 1131.78,-110.91 1131.78,-105 1131.78,-101.03 1127.5,-98.56 1121.36,-97.59"/>
<polygon fill="black" stroke="black" points="1121.43,-94.09 1111.32,-97.25 1121.19,-101.09 1121.43,-94.09"/>
<text text-anchor="middle" x="1232.78" y="-101.3" font-family="Times,serif" font-size="14.00">&lt;schedule_part_A;nop;nop&gt;</text>
</g>
</g>
</svg>
